# xmcd
#
# Track frame offsets:
#	150
#	14007
#	30978
#	42973
#	59098
#	69445
#	84343
#	96872
#	110496
#	127220
#	144275
#	158602
#	175183
#	186062
#
# Disc length: 2600 seconds
#
# Revision: 1
# Processed by: cddbd v1.5.2PL0 Copyright (c) Steve Scherf et al.
# Submitted via: audiograbber 1.83.01
#
DISCID=b90a260e
DTITLE=Johnny Cash - The Very Best Johnny Cash Duets
DYEAR=2014
DGENRE=Country
TTITLE0=Waylon Jennings, Willie Nelson, Kris Kristofferson -  Highwayman
TTITLE1=The Carter Family - The Three Bells
TTITLE2=The Statler Brothers - Hammers and Nails
TTITLE3=Ray Charles - Crazy Old Soldier
TTITLE4=George Jones - I Got Stripes
TTITLE5=Waylon Jennings - There Ain't No Good Chain Gang
TTITLE6=June Carter - Jackson
TTITLE7=June Carter Cash - If I Were a Carpenter
TTITLE8=Bob Dylan - Girl From the North Country
TTITLE9=Willie Nelson and Johnny Rodriguez - Deportee
TTITLE10=Mother Maybelle Carter - Diamonds in the Rough
TTITLE11=Billy Joe Shaver - You Can't Beat Jesus Christ
TTITLE12=Jessi Colter - The Old Rugged Cross
TTITLE13=Cindy Cash - Lay Me Down in Dixie
EXTD=
EXTT0=
EXTT1=
EXTT2=
EXTT3=
EXTT4=
EXTT5=
EXTT6=
EXTT7=
EXTT8=
EXTT9=
EXTT10=
EXTT11=
EXTT12=
EXTT13=
PLAYORDER=
